<svg width="994" height="315" viewBox="0 0 994 315" fill="none" xmlns="http://www.w3.org/2000/svg">
<circle cx="150" cy="165" r="150" fill="#ffc107"/>
<path fill-rule="evenodd" clip-rule="evenodd" d="M164.39 81.7505L203.218 105.202C211.246 110.202 217.963 122.445 218.127 132.274V158.312C218.125 158.428 218.122 158.543 218.118 158.659V234.114H218.281C218.281 243.608 210.624 251.301 201.174 251.301C191.725 251.301 184.23 243.608 184.23 234.114V198.295L115.405 198.62V232.459C115.405 242.46 107.705 250.564 98.2023 250.564C88.7001 250.564 81 242.46 81 232.459V132.274C81 122.273 87.7171 110.202 95.9087 105.202L134.737 81.7505C142.928 76.7498 156.199 76.7498 164.39 81.7505ZM115.405 164.726L184.23 164.401V161.763C184.005 160.592 183.886 159.38 183.886 158.139V144.172C183.886 139.344 180.61 133.136 176.514 130.722L157.018 118.996C152.922 116.582 146.205 116.582 142.109 118.996L122.777 130.722C118.681 133.136 115.405 139.171 115.405 144.172V164.726Z" fill="white"/>
<path d="M405 246.6C398.413 246.6 393.213 246.427 389.4 246.08C385.587 245.907 380.907 245.473 375.36 244.78C369.813 244.087 365.22 242.873 361.58 241.14C358.113 239.407 354.473 236.807 350.66 233.34C343.553 227.447 340 217.393 340 203.18V161.32C340 149.88 342.6 140.347 347.8 132.72C349.707 129.947 352.48 127.433 356.12 125.18C359.933 122.753 363.747 120.847 367.56 119.46C370.68 118.42 374.84 117.553 380.04 116.86C385.24 116.167 389.833 115.733 393.82 115.56H407.6C417.307 115.56 430.047 117.12 445.82 120.24V145.2C427.967 141.04 414.273 138.96 404.74 138.96C387.233 138.96 378.48 144.853 378.48 156.64V202.92C378.48 216.267 388.1 222.94 407.34 222.94C416.7 222.94 430.133 221.033 447.64 217.22V242.18C431.867 245.127 417.653 246.6 405 246.6ZM470.11 72.66H508.07V103.34H470.11V72.66ZM470.11 118.16H508.07V244H470.11V118.16ZM606.149 246.6C590.202 246.6 577.549 244.953 568.189 241.66C559.002 238.367 552.415 233.34 548.429 226.58C544.442 219.647 542.449 210.547 542.449 199.28V62H580.409V130.64C582.662 124.92 586.822 121.02 592.889 118.94C598.955 116.687 608.402 115.56 621.229 115.56C632.149 115.56 640.902 116.427 647.489 118.16C654.249 119.893 659.362 122.667 662.829 126.48C666.122 130.293 668.375 134.54 669.589 139.22C670.802 143.727 671.409 149.967 671.409 157.94V199.28C671.409 216.267 666.295 228.4 656.069 235.68C645.842 242.96 629.202 246.6 606.149 246.6ZM606.669 222.94C614.122 222.94 619.755 222.42 623.569 221.38C627.382 220.34 629.982 218.52 631.369 215.92C632.755 213.32 633.449 209.42 633.449 204.22V157.68C633.449 151.96 632.842 147.887 631.629 145.46C630.415 142.86 627.989 141.127 624.349 140.26C620.709 139.393 614.729 138.96 606.409 138.96C599.302 138.96 593.842 139.567 590.029 140.78C586.389 141.993 583.875 143.9 582.489 146.5C581.102 149.1 580.409 152.827 580.409 157.68V204.22C580.409 209.42 581.015 213.32 582.229 215.92C583.615 218.52 586.129 220.34 589.769 221.38C593.582 222.42 599.215 222.94 606.669 222.94ZM744.82 246.6C728.7 246.6 717.347 243.74 710.76 238.02C704.347 232.127 701.14 222.94 701.14 210.46V118.16H739.1V205.26C739.1 210.113 739.533 213.753 740.4 216.18C741.44 218.607 743.347 220.34 746.12 221.38C749.067 222.42 753.487 222.94 759.38 222.94C766.833 222.94 772.293 222.507 775.76 221.64C779.227 220.6 781.567 218.867 782.78 216.44C783.993 214.013 784.6 210.287 784.6 205.26V118.16H822.56V244H785.12V228.66C782.347 240.62 768.913 246.6 744.82 246.6ZM902.829 246.6C889.309 246.6 872.756 245.3 853.169 242.7V217.48C877.262 221.12 893.989 222.94 903.349 222.94C911.322 222.94 917.216 222.16 921.029 220.6C924.842 219.04 926.749 216.18 926.749 212.02V204.22C926.749 199.887 925.536 196.853 923.109 195.12C920.682 193.213 915.916 192.26 908.809 192.26H892.429C879.082 192.26 868.769 189.66 861.489 184.46C854.209 179.087 850.569 171.287 850.569 161.06V145.72C850.569 134.8 855.769 127.087 866.169 122.58C876.569 117.9 892.256 115.56 913.229 115.56C921.549 115.56 936.456 116.34 957.949 117.9V142.08C930.909 140 915.656 138.96 912.189 138.96C901.962 138.96 895.289 139.653 892.169 141.04C889.396 142.6 888.009 145.46 888.009 149.62V156.38C888.009 158.633 889.136 160.627 891.389 162.36C893.642 163.92 896.936 164.7 901.269 164.7H917.909C948.762 164.7 964.189 174.753 964.189 194.86V210.72C964.189 216.787 963.062 222.073 960.809 226.58C958.556 231.087 955.609 234.64 951.969 237.24C948.502 239.667 943.996 241.573 938.449 242.96C933.076 244.347 927.442 245.3 921.549 245.82C916.176 246.34 909.936 246.6 902.829 246.6Z" fill="black"/>
</svg>
